<?xml version="1.0" encoding="UTF-8" standalone="no"?>
<svg
   xmlns:dc="http://purl.org/dc/elements/1.1/"
   xmlns:cc="http://creativecommons.org/ns#"
   xmlns:rdf="http://www.w3.org/1999/02/22-rdf-syntax-ns#"
   xmlns:svg="http://www.w3.org/2000/svg"
   xmlns="http://www.w3.org/2000/svg"
   id="svg2"
   version="1.1"
   xml:space="preserve"
   width="2125.9312"
   height="256.23502"
   viewBox="0 0 2125.9312 256.23502"><metadata
     id="metadata8"><rdf:RDF><cc:Work
         rdf:about=""><dc:format>image/svg+xml</dc:format><dc:type
           rdf:resource="http://purl.org/dc/dcmitype/StillImage" /><dc:title></dc:title></cc:Work></rdf:RDF></metadata><defs
     id="defs6"><clipPath
       clipPathUnits="userSpaceOnUse"
       id="clipPath16"><path
         d="m 0,1080 1920,0 L 1920,0 0,0 0,1080 Z"
         id="path18" /></clipPath></defs><g
     style="fill:#ffffff;fill-opacity:1"
     id="g10"
     transform="matrix(1.25,0,0,-1.25,-192.95955,870.60941)"><g
       style="fill:#ffffff;fill-opacity:1"
       id="g12"><g
         style="fill:#ffffff;fill-opacity:1"
         id="g14"
         clip-path="url(#clipPath16)"><g
           style="fill:#ffffff;fill-opacity:1"
           id="g20"
           transform="translate(187.0347,660.9634)"><path
             d="m 0,0 c 10.941,-1.104 35.497,-8.031 47.183,-46.242 0.552,-1.808 1.929,-3.185 3.739,-3.658 6.769,-1.731 24.281,-7.436 38.804,-21.96 14.442,-14.442 19.989,-31.718 21.68,-38.448 0.473,-1.809 1.889,-3.225 3.701,-3.777 38.171,-11.727 45.137,-36.244 46.239,-47.185 0.196,-1.848 2.558,-2.558 3.738,-1.063 59.306,74.417 20.504,136.753 4.21,157.137 l 11.099,11.099 c 3.62,3.62 3.62,9.523 0,13.143 -3.621,3.62 -9.523,3.62 -13.143,0 L 156.151,7.947 C 135.768,24.242 73.431,63.043 -1.101,3.699 -2.558,2.557 -1.889,0.156 0,0"
             style="fill:#ffffff;fill-opacity:1;fill-rule:nonzero;stroke:none"
             id="path22" /></g><g
           style="fill:#ffffff;fill-opacity:1"
           id="g24"
           transform="translate(176.1724,513.3115)"><path
             d="M 0,0 C -2.952,2.951 -2.99,7.79 0.002,10.782 3.818,14.598 3.818,20.815 0,24.634 c -3.816,3.816 -10.034,3.816 -13.85,0 -10.586,-10.585 -10.626,-27.863 -0.002,-38.487 10.351,-10.35 27.075,-10.626 37.702,-0.708 l 65.679,65.679 c 3.817,3.817 3.817,10.034 -0.002,13.853 -3.815,3.815 -10.033,3.816 -13.85,0 -0.276,-0.277 -0.551,-0.552 -0.788,-0.865 L 10.743,-0.04 C 7.792,-2.991 2.951,-2.951 0,0"
             style="fill:#ffffff;fill-opacity:1;fill-rule:nonzero;stroke:none"
             id="path26" /></g><g
           style="fill:#ffffff;fill-opacity:1"
           id="g28"
           transform="translate(484.4302,681.0156)"><path
             d="m 0,0 c 1.467,0 2.863,-0.28 4.185,-0.837 1.321,-0.559 2.466,-1.337 3.436,-2.335 0.969,-0.999 1.732,-2.158 2.291,-3.48 0.557,-1.321 0.837,-2.746 0.837,-4.273 0,-1.528 -0.28,-2.951 -0.837,-4.273 C 9.353,-16.52 8.59,-17.68 7.621,-18.678 6.651,-19.677 5.506,-20.455 4.185,-21.012 2.863,-21.571 1.467,-21.849 0,-21.849 l -32.951,0 0,-23.877 21.409,0 c 1.468,0 2.877,-0.278 4.229,-0.837 1.351,-0.558 2.511,-1.321 3.48,-2.29 0.969,-0.969 1.747,-2.114 2.335,-3.436 0.586,-1.321 0.881,-2.746 0.881,-4.273 0,-1.528 -0.295,-2.922 -0.881,-4.185 -0.588,-1.264 -1.366,-2.35 -2.335,-3.26 -0.969,-0.911 -2.129,-1.629 -3.48,-2.158 -1.352,-0.529 -2.761,-0.793 -4.229,-0.793 l -21.409,0 0,-35.065 c 0,-1.528 -0.294,-2.937 -0.881,-4.229 -0.587,-1.292 -1.365,-2.423 -2.334,-3.392 -0.969,-0.969 -2.13,-1.733 -3.48,-2.291 -1.352,-0.559 -2.762,-0.836 -4.229,-0.836 -1.528,0 -2.967,0.277 -4.317,0.836 -1.352,0.558 -2.511,1.322 -3.48,2.291 -0.97,0.969 -1.734,2.1 -2.291,3.392 -0.559,1.292 -0.837,2.701 -0.837,4.229 l 0,91.539 c 0.058,1.115 0.278,2.304 0.661,3.568 0.381,1.262 0.998,2.393 1.85,3.392 0.851,0.998 1.967,1.835 3.348,2.511 1.379,0.674 3.068,1.013 5.066,1.013 L 0,0 Z"
             style="fill:#ffffff;fill-opacity:1;fill-rule:nonzero;stroke:none"
             id="path30" /></g><g
           style="fill:#ffffff;fill-opacity:1"
           id="g32"
           transform="translate(522.668,579.0806)"><path
             d="m 0,0 c 0,-1.528 -0.28,-2.938 -0.837,-4.229 -0.559,-1.292 -1.337,-2.438 -2.335,-3.436 -0.999,-0.999 -2.159,-1.777 -3.48,-2.335 -1.322,-0.559 -2.718,-0.836 -4.185,-0.836 -1.528,0 -2.952,0.277 -4.273,0.836 -1.322,0.558 -2.482,1.336 -3.48,2.335 -0.999,0.998 -1.792,2.144 -2.379,3.436 -0.588,1.291 -0.881,2.701 -0.881,4.229 l 0,61.408 c 0,1.467 0.293,2.863 0.881,4.185 0.587,1.322 1.38,2.48 2.379,3.48 0.998,0.998 2.188,1.776 3.568,2.335 1.379,0.557 2.833,0.837 4.361,0.837 1.468,0 2.864,-0.28 4.185,-0.837 1.322,-0.559 2.452,-1.337 3.393,-2.335 0.938,-1 1.687,-2.158 2.246,-3.48 C -0.28,64.271 0,62.875 0,61.408 L 0,0 Z m -21.806,95.856 c 0.617,1.41 1.454,2.643 2.512,3.7 1.057,1.058 2.304,1.895 3.744,2.511 1.438,0.617 2.951,0.926 4.537,0.926 1.586,0 3.097,-0.309 4.537,-0.926 1.439,-0.616 2.701,-1.453 3.788,-2.511 1.086,-1.057 1.939,-2.29 2.556,-3.7 0.616,-1.41 0.924,-2.938 0.924,-4.582 0,-1.585 -0.308,-3.098 -0.924,-4.537 -0.617,-1.44 -1.47,-2.687 -2.556,-3.744 -1.087,-1.057 -2.349,-1.894 -3.788,-2.511 -1.44,-0.617 -2.951,-0.925 -4.537,-0.925 -1.586,0 -3.099,0.308 -4.537,0.925 -1.44,0.617 -2.687,1.454 -3.744,2.511 -1.058,1.057 -1.895,2.304 -2.512,3.744 -0.616,1.439 -0.925,2.952 -0.925,4.537 0,1.644 0.309,3.172 0.925,4.582"
             style="fill:#ffffff;fill-opacity:1;fill-rule:nonzero;stroke:none"
             id="path34" /></g><g
           style="fill:#ffffff;fill-opacity:1"
           id="g36"
           transform="translate(561.3887,574.8521)"><path
             d="m 0,0 c -0.559,-1.293 -1.336,-2.438 -2.334,-3.436 -1,-1 -2.159,-1.777 -3.48,-2.335 -1.322,-0.559 -2.718,-0.837 -4.186,-0.837 -1.528,0 -2.951,0.278 -4.272,0.837 -1.322,0.558 -2.483,1.335 -3.48,2.335 -1,0.998 -1.793,2.143 -2.379,3.436 -0.588,1.291 -0.882,2.701 -0.882,4.229 l 0,61.407 c 0,1.468 0.294,2.864 0.882,4.185 0.586,1.322 1.379,2.481 2.379,3.48 0.997,0.998 2.187,1.776 3.567,2.335 1.38,0.557 2.833,0.837 4.361,0.837 2.232,0 4.229,-0.617 5.991,-1.85 1.763,-1.233 3.054,-2.819 3.877,-4.758 3.289,2.055 6.828,3.641 10.617,4.758 3.788,1.115 7.737,1.703 11.849,1.762 l 0.177,0 0.352,0 0.088,0 c 3.582,0 6.372,-1.013 8.37,-3.04 1.996,-2.026 2.995,-4.625 2.995,-7.797 0,-1.586 -0.294,-3.039 -0.881,-4.361 -0.588,-1.322 -1.396,-2.467 -2.423,-3.436 -1.028,-0.969 -2.232,-1.718 -3.612,-2.247 -1.381,-0.528 -2.863,-0.793 -4.449,-0.793 l -0.088,0 -0.352,0 C 19.691,54.652 16.872,54.021 14.229,52.817 11.585,51.613 9.265,49.998 7.269,47.972 5.271,45.945 3.701,43.581 2.555,40.879 1.41,38.177 0.837,35.299 0.837,32.246 l 0,-28.017 C 0.837,2.701 0.558,1.291 0,0"
             style="fill:#ffffff;fill-opacity:1;fill-rule:nonzero;stroke:none"
             id="path38" /></g><g
           style="fill:#ffffff;fill-opacity:1"
           id="g40"
           transform="translate(618.6982,604.146)"><path
             d="m 0,0 c -3.524,1.498 -6.652,3.26 -9.383,5.286 -2.731,2.026 -4.92,4.375 -6.564,7.048 -1.645,2.672 -2.467,5.829 -2.467,9.471 0,3.758 0.807,7.21 2.423,10.353 1.615,3.141 3.803,5.828 6.564,8.061 2.76,2.232 5.948,3.978 9.559,5.242 3.613,1.262 7.444,1.894 11.497,1.894 2.408,0 4.964,-0.235 7.666,-0.705 2.7,-0.47 5.27,-1.189 7.708,-2.158 2.438,-0.969 4.625,-2.189 6.564,-3.657 1.939,-1.468 3.407,-3.171 4.405,-5.109 0.999,-2.115 1.336,-4.083 1.014,-5.903 -0.323,-1.822 -1.072,-3.407 -2.248,-4.758 -1.292,-1.468 -2.922,-2.482 -4.888,-3.039 -1.969,-0.559 -3.893,-0.427 -5.772,0.396 -1.232,0.529 -2.334,1.115 -3.303,1.762 -0.969,0.646 -1.939,1.262 -2.908,1.85 -0.969,0.587 -1.982,1.086 -3.039,1.498 -1.057,0.41 -2.263,0.617 -3.613,0.617 -3.231,0 -5.654,-0.515 -7.268,-1.542 -1.617,-1.028 -2.423,-2.423 -2.423,-4.185 0,-1 0.323,-1.88 0.969,-2.643 0.646,-0.764 1.556,-1.469 2.731,-2.114 1.174,-0.647 2.585,-1.264 4.23,-1.851 1.643,-0.587 3.493,-1.204 5.55,-1.85 3.348,-1.057 6.533,-2.246 9.559,-3.568 3.024,-1.321 5.712,-2.938 8.061,-4.846 2.35,-1.909 4.213,-4.215 5.595,-6.916 1.38,-2.702 2.07,-5.962 2.07,-9.779 0,-3.583 -0.749,-6.946 -2.246,-10.088 -1.498,-3.142 -3.583,-5.874 -6.256,-8.193 -2.672,-2.321 -5.873,-4.141 -9.603,-5.463 -3.73,-1.321 -7.796,-1.982 -12.202,-1.982 -2.644,0 -5.463,0.28 -8.458,0.837 -2.996,0.557 -5.903,1.438 -8.723,2.643 -2.819,1.203 -5.447,2.76 -7.884,4.67 -2.438,1.908 -4.392,4.213 -5.859,6.915 -1.176,2.115 -1.748,4.098 -1.718,5.948 0.029,1.85 0.454,3.48 1.278,4.889 0.821,1.41 1.951,2.54 3.391,3.392 1.439,0.851 3.025,1.322 4.758,1.41 1.732,0.088 3.508,-0.25 5.331,-1.013 1.819,-0.764 3.523,-2.086 5.109,-3.965 0.881,-1.117 1.762,-2.085 2.644,-2.907 0.88,-0.823 1.805,-1.513 2.774,-2.071 0.97,-0.559 2.027,-0.969 3.173,-1.233 1.145,-0.265 2.479,-0.397 4.008,-0.397 1.174,0 2.319,0.117 3.436,0.353 1.114,0.234 2.114,0.586 2.995,1.057 0.882,0.469 1.587,1.057 2.115,1.762 0.529,0.705 0.793,1.527 0.793,2.467 0,1.35 -0.412,2.467 -1.234,3.348 -0.823,0.881 -1.778,1.615 -2.863,2.203 -1.087,0.586 -2.217,1.057 -3.392,1.409 -1.176,0.352 -2.115,0.646 -2.819,0.881 C 7.136,-2.923 3.524,-1.498 0,0"
             style="fill:#ffffff;fill-opacity:1;fill-rule:nonzero;stroke:none"
             id="path42" /></g><g
           style="fill:#ffffff;fill-opacity:1"
           id="g44"
           transform="translate(703.8037,651.0605)"><path
             d="m 0,0 4.846,0 c 1.527,0 2.965,-0.279 4.317,-0.837 1.35,-0.559 2.51,-1.321 3.48,-2.29 0.969,-0.97 1.732,-2.115 2.29,-3.436 0.558,-1.322 0.837,-2.747 0.837,-4.273 0,-1.528 -0.279,-2.952 -0.837,-4.273 -0.558,-1.322 -1.321,-2.482 -2.29,-3.481 -0.97,-0.999 -2.13,-1.792 -3.48,-2.378 -1.352,-0.588 -2.79,-0.881 -4.317,-0.881 l -4.846,0 0,-50.219 c 0,-1.528 -0.279,-2.937 -0.837,-4.229 -0.559,-1.292 -1.337,-2.423 -2.335,-3.391 -0.999,-0.97 -2.158,-1.734 -3.479,-2.291 -1.323,-0.56 -2.747,-0.837 -4.274,-0.837 -1.528,0 -2.951,0.277 -4.273,0.837 -1.322,0.557 -2.482,1.321 -3.48,2.291 -0.999,0.968 -1.777,2.099 -2.335,3.391 -0.559,1.292 -0.837,2.701 -0.837,4.229 l 0,50.219 -4.14,0 c -1.528,0 -2.952,0.293 -4.274,0.881 -1.321,0.586 -2.481,1.379 -3.479,2.378 -1,0.999 -1.778,2.159 -2.335,3.481 -0.559,1.321 -0.837,2.745 -0.837,4.273 0,1.526 0.278,2.951 0.837,4.273 0.557,1.321 1.335,2.466 2.335,3.436 0.998,0.969 2.158,1.731 3.479,2.29 1.322,0.558 2.746,0.837 4.274,0.837 l 4.14,0 0,19.207 c 0,1.526 0.278,2.936 0.837,4.229 0.558,1.291 1.336,2.422 2.335,3.392 0.998,0.969 2.158,1.731 3.48,2.29 1.322,0.557 2.745,0.837 4.273,0.837 1.527,0 2.951,-0.28 4.274,-0.837 1.321,-0.559 2.48,-1.321 3.479,-2.29 0.998,-0.97 1.776,-2.101 2.335,-3.392 C -0.279,22.143 0,20.733 0,19.207 L 0,0 Z"
             style="fill:#ffffff;fill-opacity:1;fill-rule:nonzero;stroke:none"
             id="path46" /></g><g
           style="fill:#ffffff;fill-opacity:1"
           id="g48"
           transform="translate(781.9487,568.2441)"><path
             d="m 0,0 c -2.878,0.293 -5.273,1.41 -7.18,3.348 -1.91,1.938 -2.864,4.405 -2.864,7.401 l 0,91.098 c 0,1.527 0.278,2.951 0.837,4.273 0.558,1.321 1.321,2.481 2.291,3.48 0.969,0.998 2.128,1.775 3.479,2.335 1.351,0.557 2.79,0.836 4.318,0.836 l 44.845,0 c 1.526,0 2.936,-0.279 4.228,-0.836 1.291,-0.56 2.423,-1.337 3.392,-2.335 0.969,-0.999 1.732,-2.159 2.291,-3.48 0.557,-1.322 0.837,-2.746 0.837,-4.273 0,-1.528 -0.28,-2.952 -0.837,-4.273 -0.559,-1.322 -1.322,-2.482 -2.291,-3.48 -0.969,-1 -2.101,-1.778 -3.392,-2.335 -1.292,-0.559 -2.702,-0.837 -4.228,-0.837 l -33.92,0 0,-24.14 23.964,0 c 1.526,0.057 2.951,-0.192 4.272,-0.749 1.322,-0.559 2.481,-1.322 3.48,-2.291 0.999,-0.969 1.776,-2.114 2.335,-3.435 0.558,-1.322 0.837,-2.747 0.837,-4.274 0,-1.528 -0.279,-2.922 -0.837,-4.184 -0.559,-1.264 -1.336,-2.366 -2.335,-3.304 -0.999,-0.941 -2.158,-1.674 -3.48,-2.203 -1.321,-0.529 -2.746,-0.793 -4.272,-0.793 l -23.964,0 0,-23.788 33.92,0 c 1.526,0 2.936,-0.294 4.228,-0.881 1.291,-0.588 2.423,-1.38 3.392,-2.379 0.969,-0.999 1.732,-2.158 2.291,-3.48 0.557,-1.321 0.837,-2.746 0.837,-4.272 0,-1.528 -0.28,-2.952 -0.837,-4.273 C 55.078,5.154 54.315,4.008 53.346,3.04 52.377,2.071 51.245,1.306 49.954,0.749 48.662,0.19 47.252,-0.058 45.726,0 L 0,0 Z"
             style="fill:#ffffff;fill-opacity:1;fill-rule:nonzero;stroke:none"
             id="path50" /></g><g
           style="fill:#ffffff;fill-opacity:1"
           id="g52"
           transform="translate(850.3159,640.6646)"><path
             d="m 0,0 c 0,1.467 0.293,2.863 0.88,4.185 0.587,1.321 1.367,2.452 2.335,3.392 0.97,0.939 2.115,1.688 3.437,2.247 1.321,0.557 2.744,0.837 4.273,0.837 1.467,0 2.863,-0.28 4.185,-0.837 1.321,-0.559 2.48,-1.308 3.479,-2.247 0.998,-0.94 1.776,-2.071 2.335,-3.392 C 21.481,2.863 21.761,1.467 21.761,0 l 0,-31.188 0,-0.088 c 0,-2.762 0.353,-5.33 1.057,-7.709 0.705,-2.379 1.747,-4.45 3.128,-6.212 1.379,-1.761 3.053,-3.142 5.022,-4.14 1.967,-1 4.185,-1.498 6.652,-1.498 2.466,0 4.713,0.469 6.739,1.409 2.027,0.939 3.774,2.232 5.243,3.877 1.467,1.644 2.612,3.597 3.436,5.859 0.822,2.26 1.233,4.742 1.233,7.444 l 0,31.893 c 0,1.468 0.278,2.864 0.837,4.186 0.558,1.321 1.322,2.48 2.29,3.479 0.97,0.999 2.115,1.776 3.437,2.335 1.321,0.558 2.745,0.837 4.273,0.837 1.467,0 2.863,-0.279 4.185,-0.837 1.321,-0.559 2.48,-1.336 3.479,-2.335 0.999,-0.999 1.792,-2.158 2.379,-3.479 0.587,-1.322 0.882,-2.718 0.882,-4.186 l 0,-61.407 c 0,-1.528 -0.295,-2.938 -0.882,-4.229 -0.587,-1.292 -1.38,-2.438 -2.379,-3.436 -0.999,-0.999 -2.173,-1.777 -3.523,-2.334 -1.353,-0.559 -2.791,-0.837 -4.318,-0.837 -2.526,0 -4.713,0.733 -6.563,2.202 -1.85,1.468 -3.098,3.317 -3.744,5.55 -2.938,-2.408 -6.05,-4.288 -9.339,-5.638 -3.29,-1.352 -6.696,-2.027 -10.221,-2.027 -5.168,0 -9.911,1.071 -14.228,3.217 -4.316,2.143 -8.017,5.065 -11.101,8.766 -3.083,3.7 -5.477,8.046 -7.18,13.039 C 0.851,-42.496 0,-37.15 0,-31.453 L 0,-31.276 0,0 Z"
             style="fill:#ffffff;fill-opacity:1;fill-rule:nonzero;stroke:none"
             id="path54" /></g><g
           style="fill:#ffffff;fill-opacity:1"
           id="g56"
           transform="translate(965.0674,574.8521)"><path
             d="m 0,0 c -0.559,-1.293 -1.337,-2.438 -2.335,-3.436 -0.999,-1 -2.158,-1.777 -3.479,-2.335 -1.322,-0.559 -2.718,-0.837 -4.186,-0.837 -1.527,0 -2.951,0.278 -4.272,0.837 -1.322,0.558 -2.482,1.335 -3.48,2.335 -1,0.998 -1.793,2.143 -2.379,3.436 -0.588,1.291 -0.882,2.701 -0.882,4.229 l 0,61.407 c 0,1.468 0.294,2.864 0.882,4.185 0.586,1.322 1.379,2.481 2.379,3.48 0.998,0.998 2.187,1.776 3.568,2.335 1.379,0.557 2.832,0.837 4.36,0.837 2.232,0 4.23,-0.617 5.992,-1.85 1.762,-1.233 3.053,-2.819 3.876,-4.758 3.289,2.055 6.828,3.641 10.616,4.758 3.788,1.115 7.738,1.703 11.85,1.762 l 0.177,0 0.352,0 0.088,0 c 3.582,0 6.372,-1.013 8.369,-3.04 1.996,-2.026 2.996,-4.625 2.996,-7.797 0,-1.586 -0.295,-3.039 -0.881,-4.361 -0.588,-1.322 -1.396,-2.467 -2.423,-3.436 -1.028,-0.969 -2.232,-1.718 -3.612,-2.247 -1.381,-0.528 -2.863,-0.793 -4.449,-0.793 l -0.088,0 -0.352,0 C 19.691,54.652 16.872,54.021 14.229,52.817 11.586,51.613 9.265,49.998 7.269,47.972 5.271,45.945 3.7,43.581 2.555,40.879 1.41,38.177 0.837,35.299 0.837,32.246 l 0,-28.017 C 0.837,2.701 0.558,1.291 0,0"
             style="fill:#ffffff;fill-opacity:1;fill-rule:nonzero;stroke:none"
             id="path58" /></g><g
           style="fill:#ffffff;fill-opacity:1"
           id="g60"
           transform="translate(1025.9023,601.415)"><path
             d="m 0,0 c 1.058,-2.438 2.496,-4.568 4.317,-6.388 1.82,-1.821 3.95,-3.246 6.387,-4.273 2.438,-1.028 5.036,-1.542 7.798,-1.542 2.819,0 5.446,0.514 7.885,1.542 2.436,1.027 4.55,2.452 6.343,4.273 1.791,1.82 3.216,3.95 4.273,6.388 1.058,2.437 1.586,5.035 1.586,7.797 0,2.819 -0.528,5.432 -1.586,7.841 -1.057,2.408 -2.482,4.522 -4.273,6.343 -1.793,1.82 -3.907,3.245 -6.343,4.273 -2.439,1.027 -5.066,1.542 -7.885,1.542 -2.762,0 -5.36,-0.515 -7.798,-1.542 C 8.267,25.226 6.137,23.801 4.317,21.981 2.496,20.16 1.058,18.046 0,15.638 -1.058,13.229 -1.586,10.616 -1.586,7.797 -1.586,5.035 -1.058,2.437 0,0 m -20.176,24.14 c 2.232,5.08 5.256,9.528 9.075,13.347 3.818,3.818 8.266,6.828 13.347,9.031 5.08,2.203 10.498,3.304 16.256,3.304 5.814,0 11.262,-1.101 16.343,-3.304 5.08,-2.203 9.515,-5.213 13.303,-9.031 3.789,-3.819 6.785,-8.267 8.987,-13.347 2.202,-5.081 3.303,-10.529 3.303,-16.343 0,-5.757 -1.101,-11.189 -3.303,-16.299 -2.202,-5.11 -5.198,-9.559 -8.987,-13.348 -3.788,-3.788 -8.223,-6.783 -13.303,-8.986 -5.081,-2.203 -10.529,-3.304 -16.343,-3.304 -5.758,0 -11.176,1.101 -16.256,3.304 -5.081,2.203 -9.529,5.198 -13.347,8.986 -3.819,3.789 -6.843,8.238 -9.075,13.348 -2.232,5.11 -3.347,10.542 -3.347,16.299 0,5.814 1.115,11.262 3.347,16.343"
             style="fill:#ffffff;fill-opacity:1;fill-rule:nonzero;stroke:none"
             id="path62" /></g><g
           style="fill:#ffffff;fill-opacity:1"
           id="g64"
           transform="translate(1163.0742,578.9927)"><path
             d="m 0,0 c 0,-1.528 -0.295,-2.938 -0.881,-4.229 -0.588,-1.292 -1.365,-2.423 -2.335,-3.392 -0.969,-0.969 -2.129,-1.733 -3.479,-2.291 -1.353,-0.559 -2.762,-0.837 -4.23,-0.837 -1.527,0 -2.951,0.278 -4.272,0.837 -1.322,0.558 -2.483,1.322 -3.481,2.291 -0.999,0.969 -1.776,2.1 -2.335,3.392 -0.558,1.291 -0.837,2.701 -0.837,4.229 l 0,91.274 c 0,1.527 0.279,2.936 0.837,4.229 0.559,1.291 1.336,2.423 2.335,3.393 0.998,0.969 2.159,1.731 3.481,2.29 1.321,0.557 2.745,0.837 4.272,0.837 1.468,0 2.877,-0.28 4.23,-0.837 1.35,-0.559 2.51,-1.321 3.479,-2.29 0.97,-0.97 1.747,-2.102 2.335,-3.393 C -0.295,94.21 0,92.801 0,91.274 L 0,0 Z"
             style="fill:#ffffff;fill-opacity:1;fill-rule:nonzero;stroke:none"
             id="path66" /></g><g
           style="fill:#ffffff;fill-opacity:1"
           id="g68"
           transform="translate(1201.002,649.1226)"><path
             d="m 0,0 c 1.851,-1.469 3.098,-3.319 3.744,-5.551 2.937,2.408 6.05,4.287 9.339,5.639 3.289,1.35 6.696,2.026 10.221,2.026 5.168,0 9.895,-1.057 14.183,-3.171 4.287,-2.115 7.974,-5.008 11.058,-8.678 3.084,-3.672 5.476,-7.989 7.181,-12.952 1.703,-4.963 2.583,-10.264 2.642,-15.902 l 0,-0.088 0,-0.264 0,-0.441 0,-31.012 c 0,-1.528 -0.295,-2.938 -0.881,-4.229 -0.588,-1.293 -1.365,-2.409 -2.335,-3.348 -0.969,-0.94 -2.13,-1.689 -3.48,-2.246 -1.351,-0.559 -2.761,-0.837 -4.229,-0.837 -1.468,0 -2.863,0.278 -4.184,0.837 -1.322,0.557 -2.468,1.306 -3.437,2.246 -0.968,0.939 -1.748,2.055 -2.335,3.348 -0.587,1.291 -0.881,2.701 -0.881,4.229 l 0,31.276 0,0.441 c -0.058,2.7 -0.455,5.212 -1.188,7.532 -0.735,2.32 -1.777,4.332 -3.128,6.036 -1.352,1.702 -2.996,3.053 -4.935,4.052 -1.937,0.998 -4.111,1.498 -6.518,1.498 -2.409,0 -4.612,-0.441 -6.608,-1.321 -1.998,-0.882 -3.731,-2.115 -5.199,-3.701 -1.468,-1.586 -2.629,-3.466 -3.479,-5.638 -0.853,-2.174 -1.309,-4.553 -1.366,-7.136 l 0,-32.687 c 0,-1.528 -0.28,-2.937 -0.837,-4.229 -0.559,-1.292 -1.336,-2.438 -2.334,-3.436 -0.999,-0.999 -2.16,-1.777 -3.481,-2.335 -1.321,-0.559 -2.718,-0.836 -4.184,-0.836 -1.529,0 -2.952,0.277 -4.274,0.836 -1.321,0.558 -2.481,1.336 -3.479,2.335 -1,0.998 -1.792,2.144 -2.379,3.436 -0.588,1.292 -0.882,2.701 -0.882,4.229 l 0,61.408 c 0,1.467 0.294,2.863 0.882,4.185 0.587,1.322 1.379,2.48 2.379,3.48 0.998,0.998 2.187,1.776 3.567,2.335 1.38,0.557 2.833,0.837 4.361,0.837 C -4.009,2.203 -1.85,1.467 0,0"
             style="fill:#ffffff;fill-opacity:1;fill-rule:nonzero;stroke:none"
             id="path70" /></g><g
           style="fill:#ffffff;fill-opacity:1"
           id="g72"
           transform="translate(1290.998,604.146)"><path
             d="m 0,0 c -3.524,1.498 -6.652,3.26 -9.383,5.286 -2.731,2.026 -4.92,4.375 -6.563,7.048 -1.646,2.672 -2.468,5.829 -2.468,9.471 0,3.758 0.808,7.21 2.424,10.353 1.614,3.141 3.801,5.828 6.562,8.061 2.761,2.232 5.948,3.978 9.56,5.242 3.612,1.262 7.444,1.894 11.497,1.894 2.408,0 4.963,-0.235 7.666,-0.705 2.7,-0.47 5.27,-1.189 7.708,-2.158 2.437,-0.969 4.625,-2.189 6.563,-3.657 1.94,-1.468 3.407,-3.171 4.407,-5.109 0.998,-2.115 1.335,-4.083 1.012,-5.903 -0.323,-1.822 -1.072,-3.407 -2.247,-4.758 -1.293,-1.468 -2.922,-2.482 -4.888,-3.039 -1.969,-0.559 -3.893,-0.427 -5.772,0.396 -1.233,0.529 -2.334,1.115 -3.304,1.762 -0.968,0.646 -1.938,1.262 -2.908,1.85 -0.969,0.587 -1.981,1.086 -3.039,1.498 -1.056,0.41 -2.262,0.617 -3.612,0.617 -3.231,0 -5.653,-0.515 -7.269,-1.542 -1.616,-1.028 -2.423,-2.423 -2.423,-4.185 0,-1 0.323,-1.88 0.97,-2.643 0.646,-0.764 1.556,-1.469 2.732,-2.114 1.173,-0.647 2.583,-1.264 4.228,-1.851 1.644,-0.587 3.493,-1.204 5.551,-1.85 3.348,-1.057 6.533,-2.246 9.559,-3.568 3.024,-1.321 5.711,-2.938 8.061,-4.846 2.349,-1.909 4.214,-4.215 5.595,-6.916 1.379,-2.702 2.07,-5.962 2.07,-9.779 0,-3.583 -0.749,-6.946 -2.247,-10.088 -1.497,-3.142 -3.583,-5.874 -6.255,-8.193 -2.673,-2.321 -5.874,-4.141 -9.603,-5.463 -3.731,-1.321 -7.797,-1.982 -12.202,-1.982 -2.643,0 -5.462,0.28 -8.459,0.837 -2.995,0.557 -5.902,1.438 -8.721,2.643 -2.82,1.203 -5.448,2.76 -7.886,4.67 -2.437,1.908 -4.392,4.213 -5.858,6.915 -1.176,2.115 -1.748,4.098 -1.718,5.948 0.028,1.85 0.454,3.48 1.277,4.889 0.822,1.41 1.952,2.54 3.393,3.392 1.437,0.851 3.024,1.322 4.757,1.41 1.731,0.088 3.508,-0.25 5.33,-1.013 1.819,-0.764 3.524,-2.086 5.11,-3.965 0.881,-1.117 1.762,-2.085 2.643,-2.907 0.881,-0.823 1.805,-1.513 2.775,-2.071 0.97,-0.559 2.026,-0.969 3.172,-1.233 1.145,-0.265 2.48,-0.397 4.009,-0.397 1.173,0 2.319,0.117 3.435,0.353 1.115,0.234 2.114,0.586 2.996,1.057 0.881,0.469 1.586,1.057 2.115,1.762 0.528,0.705 0.793,1.527 0.793,2.467 0,1.35 -0.413,2.467 -1.234,3.348 -0.823,0.881 -1.777,1.615 -2.863,2.203 -1.088,0.586 -2.218,1.057 -3.392,1.409 -1.177,0.352 -2.115,0.646 -2.819,0.881 C 7.136,-2.923 3.523,-1.498 0,0"
             style="fill:#ffffff;fill-opacity:1;fill-rule:nonzero;stroke:none"
             id="path74" /></g><g
           style="fill:#ffffff;fill-opacity:1"
           id="g76"
           transform="translate(1345.708,640.6646)"><path
             d="m 0,0 c 0,1.467 0.293,2.863 0.881,4.185 0.587,1.321 1.366,2.452 2.335,3.392 0.97,0.939 2.115,1.688 3.436,2.247 1.322,0.557 2.744,0.837 4.273,0.837 1.468,0 2.863,-0.28 4.185,-0.837 1.322,-0.559 2.481,-1.308 3.48,-2.247 0.998,-0.94 1.775,-2.071 2.335,-3.392 C 21.481,2.863 21.762,1.467 21.762,0 l 0,-31.188 0,-0.088 c 0,-2.762 0.352,-5.33 1.056,-7.709 0.705,-2.379 1.747,-4.45 3.128,-6.212 1.379,-1.761 3.054,-3.142 5.023,-4.14 1.967,-1 4.184,-1.498 6.651,-1.498 2.467,0 4.713,0.469 6.74,1.409 2.027,0.939 3.773,2.232 5.242,3.877 1.467,1.644 2.613,3.597 3.436,5.859 0.822,2.26 1.233,4.742 1.233,7.444 l 0,31.893 c 0,1.468 0.279,2.864 0.837,4.186 0.558,1.321 1.322,2.48 2.29,3.479 0.97,0.999 2.116,1.776 3.437,2.335 1.321,0.558 2.745,0.837 4.273,0.837 1.467,0 2.863,-0.279 4.185,-0.837 1.321,-0.559 2.48,-1.336 3.479,-2.335 0.999,-0.999 1.792,-2.158 2.38,-3.479 0.586,-1.322 0.881,-2.718 0.881,-4.186 l 0,-61.407 c 0,-1.528 -0.295,-2.938 -0.881,-4.229 -0.588,-1.292 -1.381,-2.438 -2.38,-3.436 -0.999,-0.999 -2.172,-1.777 -3.523,-2.334 -1.352,-0.559 -2.79,-0.837 -4.317,-0.837 -2.527,0 -4.714,0.733 -6.564,2.202 -1.85,1.468 -3.098,3.317 -3.744,5.55 -2.937,-2.408 -6.05,-4.288 -9.339,-5.638 -3.29,-1.352 -6.695,-2.027 -10.221,-2.027 -5.168,0 -9.911,1.071 -14.228,3.217 -4.316,2.143 -8.017,5.065 -11.101,8.766 -3.083,3.7 -5.477,8.046 -7.18,13.039 C 0.851,-42.496 0,-37.15 0,-31.453 L 0,-31.276 0,0 Z"
             style="fill:#ffffff;fill-opacity:1;fill-rule:nonzero;stroke:none"
             id="path78" /></g><g
           style="fill:#ffffff;fill-opacity:1"
           id="g80"
           transform="translate(1460.46,574.8521)"><path
             d="m 0,0 c -0.56,-1.293 -1.337,-2.438 -2.335,-3.436 -0.999,-1 -2.158,-1.777 -3.479,-2.335 -1.322,-0.559 -2.718,-0.837 -4.186,-0.837 -1.527,0 -2.951,0.278 -4.272,0.837 -1.322,0.558 -2.483,1.335 -3.481,2.335 -1,0.998 -1.792,2.143 -2.379,3.436 -0.588,1.291 -0.881,2.701 -0.881,4.229 l 0,61.407 c 0,1.468 0.293,2.864 0.881,4.185 0.587,1.322 1.379,2.481 2.379,3.48 0.998,0.998 2.188,1.776 3.568,2.335 1.379,0.557 2.833,0.837 4.362,0.837 2.231,0 4.228,-0.617 5.991,-1.85 1.761,-1.233 3.053,-2.819 3.876,-4.758 3.289,2.055 6.828,3.641 10.616,4.758 3.788,1.115 7.738,1.703 11.85,1.762 l 0.177,0 0.352,0 0.088,0 c 3.582,0 6.372,-1.013 8.369,-3.04 1.996,-2.026 2.996,-4.625 2.996,-7.797 0,-1.586 -0.295,-3.039 -0.881,-4.361 -0.588,-1.322 -1.396,-2.467 -2.424,-3.436 -1.027,-0.969 -2.231,-1.718 -3.611,-2.247 -1.381,-0.528 -2.863,-0.793 -4.449,-0.793 l -0.088,0 -0.352,0 C 19.691,54.652 16.872,54.021 14.229,52.817 11.586,51.613 9.265,49.998 7.269,47.972 5.271,45.945 3.7,43.581 2.555,40.879 1.409,38.177 0.837,35.299 0.837,32.246 l 0,-28.017 C 0.837,2.701 0.558,1.291 0,0"
             style="fill:#ffffff;fill-opacity:1;fill-rule:nonzero;stroke:none"
             id="path82" /></g><g
           style="fill:#ffffff;fill-opacity:1"
           id="g84"
           transform="translate(1521.2949,601.415)"><path
             d="m 0,0 c 1.058,-2.438 2.496,-4.568 4.317,-6.388 1.821,-1.821 3.95,-3.246 6.388,-4.273 2.437,-1.028 5.035,-1.542 7.797,-1.542 2.819,0 5.447,0.514 7.886,1.542 2.436,1.027 4.55,2.452 6.342,4.273 1.791,1.82 3.216,3.95 4.274,6.388 1.057,2.437 1.585,5.035 1.585,7.797 0,2.819 -0.528,5.432 -1.585,7.841 -1.058,2.408 -2.483,4.522 -4.274,6.343 -1.792,1.82 -3.906,3.245 -6.342,4.273 -2.439,1.027 -5.067,1.542 -7.886,1.542 -2.762,0 -5.36,-0.515 -7.797,-1.542 C 8.267,25.226 6.138,23.801 4.317,21.981 2.496,20.16 1.058,18.046 0,15.638 -1.057,13.229 -1.585,10.616 -1.585,7.797 -1.585,5.035 -1.057,2.437 0,0 m -20.176,24.14 c 2.233,5.08 5.257,9.528 9.075,13.347 3.818,3.818 8.267,6.828 13.348,9.031 5.079,2.203 10.498,3.304 16.255,3.304 5.696,0 11.071,-1.088 16.123,-3.26 5.051,-2.174 9.472,-5.125 13.26,-8.854 3.788,-3.731 6.797,-8.121 9.03,-13.172 2.231,-5.052 3.405,-10.426 3.523,-16.122 l 0,-0.177 0,-0.44 0,-29.779 c 0,-1.528 -0.293,-2.981 -0.88,-4.361 -0.588,-1.381 -1.38,-2.57 -2.378,-3.568 -1,-1 -2.174,-1.793 -3.525,-2.379 -1.351,-0.587 -2.819,-0.881 -4.405,-0.881 -2.233,0 -4.172,0.542 -5.814,1.63 -1.646,1.086 -2.879,2.511 -3.702,4.273 -3.171,-2.115 -6.534,-3.789 -10.088,-5.022 -3.553,-1.233 -7.267,-1.85 -11.144,-1.85 -5.757,0 -11.176,1.101 -16.255,3.304 -5.081,2.203 -9.53,5.198 -13.348,8.986 -3.818,3.789 -6.842,8.238 -9.075,13.348 -2.232,5.11 -3.347,10.542 -3.347,16.299 0,5.814 1.115,11.262 3.347,16.343"
             style="fill:#ffffff;fill-opacity:1;fill-rule:nonzero;stroke:none"
             id="path86" /></g><g
           style="fill:#ffffff;fill-opacity:1"
           id="g88"
           transform="translate(1616.9277,649.1226)"><path
             d="m 0,0 c 1.851,-1.469 3.099,-3.319 3.745,-5.551 2.937,2.408 6.049,4.287 9.339,5.639 3.288,1.35 6.696,2.026 10.22,2.026 5.168,0 9.896,-1.057 14.184,-3.171 4.287,-2.115 7.974,-5.008 11.058,-8.678 3.083,-3.672 5.475,-7.989 7.18,-12.952 1.703,-4.963 2.584,-10.264 2.642,-15.902 l 0,-0.088 0,-0.264 0,-0.441 0,-31.012 c 0,-1.528 -0.294,-2.938 -0.88,-4.229 -0.589,-1.293 -1.366,-2.409 -2.335,-3.348 -0.969,-0.94 -2.13,-1.689 -3.48,-2.246 -1.352,-0.559 -2.761,-0.837 -4.229,-0.837 -1.469,0 -2.863,0.278 -4.184,0.837 -1.322,0.557 -2.468,1.306 -3.437,2.246 -0.969,0.939 -1.749,2.055 -2.335,3.348 -0.588,1.291 -0.881,2.701 -0.881,4.229 l 0,31.276 0,0.441 c -0.059,2.7 -0.455,5.212 -1.189,7.532 -0.735,2.32 -1.777,4.332 -3.128,6.036 -1.352,1.702 -2.996,3.053 -4.934,4.052 -1.938,0.998 -4.111,1.498 -6.519,1.498 -2.409,0 -4.611,-0.441 -6.608,-1.321 -1.998,-0.882 -3.73,-2.115 -5.198,-3.701 -1.469,-1.586 -2.629,-3.466 -3.48,-5.638 -0.852,-2.174 -1.308,-4.553 -1.365,-7.136 l 0,-32.687 c 0,-1.528 -0.28,-2.937 -0.837,-4.229 -0.559,-1.292 -1.337,-2.438 -2.335,-3.436 -0.999,-0.999 -2.159,-1.777 -3.481,-2.335 -1.321,-0.559 -2.717,-0.836 -4.184,-0.836 -1.528,0 -2.952,0.277 -4.274,0.836 -1.321,0.558 -2.481,1.336 -3.479,2.335 -0.999,0.998 -1.792,2.144 -2.379,3.436 -0.588,1.292 -0.881,2.701 -0.881,4.229 l 0,61.408 c 0,1.467 0.293,2.863 0.881,4.185 0.587,1.322 1.38,2.48 2.379,3.48 0.998,0.998 2.187,1.776 3.568,2.335 1.379,0.557 2.833,0.837 4.36,0.837 C -4.008,2.203 -1.85,1.467 0,0"
             style="fill:#ffffff;fill-opacity:1;fill-rule:nonzero;stroke:none"
             id="path90" /></g><g
           style="fill:#ffffff;fill-opacity:1"
           id="g92"
           transform="translate(1720.624,627.2729)"><path
             d="m 0,0 c -2.262,-1.175 -4.215,-2.702 -5.859,-4.582 -1.645,-1.879 -2.938,-3.994 -3.876,-6.343 -0.941,-2.349 -1.411,-4.728 -1.411,-7.136 0,-2.35 0.47,-4.685 1.411,-7.004 0.938,-2.321 2.231,-4.405 3.876,-6.255 1.644,-1.851 3.597,-3.379 5.859,-4.582 2.261,-1.204 4.714,-1.836 7.356,-1.894 2.467,-0.119 4.816,0.102 7.049,0.661 2.232,0.557 4.581,1.776 7.048,3.656 1.115,0.881 2.305,1.731 3.568,2.555 1.262,0.821 2.628,1.394 4.097,1.718 1.467,0.322 3.009,0.308 4.625,-0.044 1.615,-0.353 3.304,-1.292 5.067,-2.819 1.173,-1.057 2.04,-2.262 2.598,-3.613 0.558,-1.352 0.822,-2.775 0.793,-4.273 -0.03,-1.498 -0.367,-2.995 -1.013,-4.493 -0.647,-1.498 -1.617,-2.893 -2.907,-4.185 -3.701,-3.7 -8.062,-6.519 -13.084,-8.458 -5.021,-1.938 -10.294,-2.907 -15.814,-2.907 -5.934,0 -11.497,1.071 -16.695,3.216 -5.199,2.143 -9.736,5.079 -13.613,8.81 -3.876,3.729 -6.945,8.135 -9.207,13.215 -2.261,5.08 -3.391,10.587 -3.391,16.52 0,5.872 1.13,11.394 3.391,16.563 2.262,5.168 5.331,9.661 9.207,13.48 3.877,3.817 8.414,6.828 13.613,9.03 5.198,2.203 10.761,3.304 16.695,3.304 5.58,0 10.866,-0.969 15.858,-2.907 4.992,-1.939 9.339,-4.758 13.04,-8.458 1.29,-1.293 2.26,-2.702 2.907,-4.229 0.646,-1.528 0.998,-3.04 1.057,-4.537 0.059,-1.498 -0.207,-2.923 -0.793,-4.273 -0.588,-1.352 -1.469,-2.555 -2.642,-3.612 -1.763,-1.528 -3.452,-2.467 -5.067,-2.82 -1.616,-0.352 -3.158,-0.352 -4.625,0 -1.469,0.353 -2.835,0.939 -4.097,1.762 -1.263,0.822 -2.453,1.674 -3.568,2.556 C 19.044,-0.559 16.709,0.63 14.449,1.189 12.188,1.747 9.823,1.996 7.356,1.938 4.714,1.82 2.261,1.174 0,0"
             style="fill:#ffffff;fill-opacity:1;fill-rule:nonzero;stroke:none"
             id="path94" /></g><g
           style="fill:#ffffff;fill-opacity:1"
           id="g96"
           transform="translate(1832.6455,617.5815)"><path
             d="m 0,0 c -1.528,3.876 -4.008,6.989 -7.444,9.339 -3.437,2.349 -7.445,3.524 -12.027,3.524 -2.232,0 -4.346,-0.323 -6.342,-0.969 -1.999,-0.647 -3.804,-1.542 -5.419,-2.687 C -32.849,8.062 -34.271,6.696 -35.506,5.11 -36.738,3.524 -37.708,1.82 -38.412,0 L 0,0 Z m -37.796,-18.149 c 1.703,-3.407 4.154,-6.123 7.357,-8.15 3.2,-2.026 6.74,-3.039 10.616,-3.039 1.586,0 2.952,0.102 4.097,0.308 1.145,0.205 2.159,0.47 3.039,0.793 0.881,0.322 1.674,0.719 2.379,1.19 0.705,0.469 1.38,0.969 2.027,1.497 1.938,1.527 3.832,2.408 5.682,2.643 1.85,0.235 3.597,0.029 5.243,-0.616 1.114,-0.412 2.114,-1.029 2.995,-1.851 0.881,-0.823 1.643,-1.762 2.291,-2.819 0.645,-1.057 1.114,-2.203 1.409,-3.436 0.293,-1.233 0.352,-2.482 0.176,-3.744 -0.176,-1.264 -0.587,-2.511 -1.233,-3.745 -0.647,-1.233 -1.616,-2.349 -2.908,-3.347 -1.175,-1 -2.525,-1.969 -4.052,-2.908 -1.529,-0.94 -3.304,-1.777 -5.33,-2.511 -2.027,-0.735 -4.333,-1.321 -6.917,-1.762 -2.585,-0.44 -5.551,-0.661 -8.898,-0.661 -5.815,0 -11.277,1.102 -16.387,3.305 -5.11,2.202 -9.59,5.197 -13.436,8.986 -3.847,3.788 -6.887,8.222 -9.119,13.303 -2.232,5.08 -3.347,10.528 -3.347,16.343 0,5.815 1.115,11.277 3.347,16.388 2.232,5.109 5.272,9.559 9.119,13.347 3.846,3.788 8.326,6.784 13.436,8.987 5.11,2.202 10.572,3.303 16.387,3.303 5.696,0 11.1,-1.072 16.211,-3.216 5.11,-2.144 9.573,-5.096 13.391,-8.854 3.818,-3.759 6.857,-8.149 9.119,-13.171 2.26,-5.022 3.451,-10.411 3.569,-16.167 0,-3.114 -1,-5.625 -2.996,-7.533 -1.998,-1.909 -4.581,-2.863 -7.753,-2.863 l -49.514,0 z"
             style="fill:#ffffff;fill-opacity:1;fill-rule:nonzero;stroke:none"
             id="path98" /></g><g
           style="fill:#ffffff;fill-opacity:1"
           id="g100"
           transform="translate(438.8643,522.2021)"><path
             d="m 0,0 -4.903,0 0,-18.118 -5.319,0 0,40.336 5.319,0 0,-17.785 4.155,0 14.101,17.785 6.621,0 L 4.571,2.659 21.11,-18.118 l -6.51,0 L 0,0 Z"
             style="fill:#ffffff;fill-opacity:1;fill-rule:nonzero;stroke:none"
             id="path102" /></g><g
           style="fill:#ffffff;fill-opacity:1"
           id="g104"
           transform="translate(483.6055,519.3213)"><path
             d="m 0,0 c 0,3.38 -0.72,6.048 -2.161,8.006 -1.441,1.958 -3.417,2.936 -5.929,2.936 -3.102,0 -5.429,-1.376 -6.981,-4.128 l 0,-14.322 c 1.533,-2.733 3.879,-4.1 7.037,-4.1 2.456,0 4.409,0.974 5.859,2.922 C -0.726,-6.737 0,-3.842 0,0 m 5.125,-0.582 c 0,-4.563 -1.044,-8.237 -3.13,-11.026 -2.088,-2.789 -4.913,-4.183 -8.477,-4.183 -3.64,0 -6.502,1.153 -8.589,3.463 l 0,-14.434 -5.125,0 0,41.5 4.682,0 0.249,-3.325 c 2.087,2.586 4.987,3.879 8.699,3.879 3.602,0 6.45,-1.357 8.546,-4.072 C 4.076,8.505 5.125,4.728 5.125,-0.111 l 0,-0.471 z"
             style="fill:#ffffff;fill-opacity:1;fill-rule:nonzero;stroke:none"
             id="path106" /></g><g
           style="fill:#ffffff;fill-opacity:1"
           id="g108"
           transform="translate(504.7427,511.5918)"><path
             d="m 0,0 6.981,22.468 5.485,0 -12.05,-34.602 c -1.866,-4.987 -4.83,-7.48 -8.893,-7.48 l -0.97,0.084 -1.911,0.36 0,4.155 1.385,-0.111 c 1.736,0 3.089,0.351 4.058,1.053 0.97,0.702 1.769,1.985 2.397,3.85 l 1.136,3.047 -10.694,29.644 5.596,0 L 0,0 Z"
             style="fill:#ffffff;fill-opacity:1;fill-rule:nonzero;stroke:none"
             id="path110" /></g><g
           style="fill:#ffffff;fill-opacity:1"
           id="g112"
           transform="translate(546.2974,504.084)"><path
             d="m 0,0 -5.125,0 0,25.736 -13.796,0 0,-25.736 -5.153,0 0,29.976 L 0,29.976 0,0 Z"
             style="fill:#ffffff;fill-opacity:1;fill-rule:nonzero;stroke:none"
             id="path114" /></g><g
           style="fill:#ffffff;fill-opacity:1"
           id="g116"
           transform="translate(579.0151,504.084)"><path
             d="m 0,0 -5.125,0 0,12.799 -13.769,0 0,-12.799 -5.152,0 0,29.976 5.152,0 0,-12.994 13.769,0 0,12.994 5.125,0 L 0,0 Z"
             style="fill:#ffffff;fill-opacity:1;fill-rule:nonzero;stroke:none"
             id="path118" /></g><g
           style="fill:#ffffff;fill-opacity:1"
           id="g120"
           transform="translate(599.0444,530.4023)"><path
             d="m 0,0 c -2.069,0 -3.805,-0.753 -5.208,-2.258 -1.403,-1.505 -2.271,-3.615 -2.604,-6.33 l 15.016,0 0,0.388 C 7.055,-5.596 6.354,-3.578 5.098,-2.147 3.842,-0.716 2.143,0 0,0 m 0.638,-26.872 c -4.064,0 -7.369,1.334 -9.918,4.003 -2.549,2.669 -3.824,6.237 -3.824,10.707 l 0,0.942 c 0,2.974 0.569,5.628 1.705,7.965 1.135,2.336 2.724,4.164 4.764,5.485 2.041,1.32 4.253,1.981 6.635,1.981 3.897,0 6.925,-1.284 9.087,-3.851 2.161,-2.567 3.241,-6.243 3.241,-11.026 l 0,-2.133 -20.307,0 c 0.074,-2.955 0.938,-5.343 2.591,-7.161 1.653,-1.819 3.755,-2.729 6.303,-2.729 1.809,0 3.341,0.37 4.599,1.108 1.256,0.738 2.354,1.718 3.297,2.936 l 3.129,-2.437 c -2.511,-3.86 -6.279,-5.79 -11.302,-5.79"
             style="fill:#ffffff;fill-opacity:1;fill-rule:nonzero;stroke:none"
             id="path122" /></g><g
           style="fill:#ffffff;fill-opacity:1"
           id="g124"
           transform="translate(638.0786,545.002)"><path
             d="m 0,0 c 0,-2.243 -0.762,-4.046 -2.286,-5.409 -1.523,-1.362 -3.523,-2.043 -5.997,-2.043 -2.475,0 -4.479,0.685 -6.011,2.057 -1.534,1.372 -2.3,3.17 -2.3,5.395 l 4.183,0 c 0,-1.293 0.35,-2.304 1.053,-3.033 0.702,-0.73 1.726,-1.094 3.075,-1.094 1.292,0 2.304,0.359 3.033,1.08 0.729,0.72 1.095,1.735 1.095,3.047 L 0,0 Z m -1.385,-10.942 5.125,0 0,-29.976 -5.125,0 0,21.858 -13.824,-21.858 -5.125,0 0,29.976 5.125,0 0,-21.886 13.824,21.886 z"
             style="fill:#ffffff;fill-opacity:1;fill-rule:nonzero;stroke:none"
             id="path126" /></g><g
           style="fill:#ffffff;fill-opacity:1"
           id="g128"
           transform="translate(655.6431,534.0596)"><path
             d="m 0,0 0,-25.792 10.97,0 0,25.792 5.125,0 0,-25.792 10.943,0 0,25.792 5.153,0 0,-29.976 -37.344,0 L -5.153,0 0,0 Z"
             style="fill:#ffffff;fill-opacity:1;fill-rule:nonzero;stroke:none"
             id="path130" /></g><g
           style="fill:#ffffff;fill-opacity:1"
           id="g132"
           transform="translate(715.3154,534.0596)"><path
             d="m 0,0 5.125,0 0,-29.976 -5.125,0 0,21.859 -13.824,-21.859 -5.125,0 0,29.976 5.125,0 0,-21.886 L 0,0 Z"
             style="fill:#ffffff;fill-opacity:1;fill-rule:nonzero;stroke:none"
             id="path134" /></g><g
           style="fill:#ffffff;fill-opacity:1"
           id="g136"
           transform="translate(749.4458,545.002)"><path
             d="m 0,0 c 0,-2.243 -0.761,-4.046 -2.286,-5.409 -1.523,-1.362 -3.523,-2.043 -5.997,-2.043 -2.475,0 -4.479,0.685 -6.011,2.057 -1.534,1.372 -2.3,3.17 -2.3,5.395 l 4.183,0 c 0,-1.293 0.351,-2.304 1.053,-3.033 0.702,-0.73 1.727,-1.094 3.075,-1.094 1.292,0 2.304,0.359 3.033,1.08 0.729,0.72 1.095,1.735 1.095,3.047 L 0,0 Z m -1.385,-10.942 5.125,0 0,-29.976 -5.125,0 0,21.858 -13.824,-21.858 -5.125,0 0,29.976 5.125,0 0,-21.886 13.824,21.886 z"
             style="fill:#ffffff;fill-opacity:1;fill-rule:nonzero;stroke:none"
             id="path138" /></g><g
           style="fill:#ffffff;fill-opacity:1"
           id="g140"
           transform="translate(785.46,507.9902)"><path
             d="m 0,0 c 1.607,0 3.131,0.416 4.571,1.246 1.441,0.832 2.484,1.912 3.131,3.242 l 0,6.151 -4.017,0 c -6.28,0 -9.419,-1.838 -9.419,-5.514 0,-1.606 0.535,-2.863 1.607,-3.768 C -3.057,0.452 -1.681,0 0,0 M 8.505,-3.906 C 8.209,-3.315 7.969,-2.263 7.785,-0.747 5.402,-3.223 2.558,-4.46 -0.748,-4.46 c -2.955,0 -5.379,0.836 -7.272,2.507 -1.893,1.671 -2.84,3.791 -2.84,6.358 0,3.12 1.187,5.545 3.561,7.272 2.372,1.726 5.711,2.591 10.014,2.591 l 4.987,0 0,2.354 c 0,1.791 -0.536,3.218 -1.607,4.28 -1.072,1.062 -2.65,1.593 -4.737,1.593 -1.829,0 -3.362,-0.462 -4.599,-1.385 -1.238,-0.923 -1.857,-2.041 -1.857,-3.352 l -5.152,0 c 0,1.496 0.531,2.941 1.593,4.336 1.062,1.394 2.502,2.498 4.322,3.31 1.819,0.813 3.817,1.219 5.998,1.219 3.453,0 6.159,-0.863 8.116,-2.59 1.958,-1.727 2.974,-4.105 3.048,-7.134 l 0,-13.796 c 0,-2.752 0.35,-4.941 1.052,-6.566 l 0,-0.443 -5.374,0 z"
             style="fill:#ffffff;fill-opacity:1;fill-rule:nonzero;stroke:none"
             id="path142" /></g><g
           style="fill:#ffffff;fill-opacity:1"
           id="g144"
           transform="translate(825.686,529.8203)"><path
             d="m 0,0 -13.824,0 0,-25.736 -5.153,0 0,29.975 L 0,4.239 0,0 Z"
             style="fill:#ffffff;fill-opacity:1;fill-rule:nonzero;stroke:none"
             id="path146" /></g><g
           style="fill:#ffffff;fill-opacity:1"
           id="g148"
           transform="translate(850.3135,519.3213)"><path
             d="m 0,0 c 0,3.38 -0.721,6.048 -2.161,8.006 -1.441,1.958 -3.417,2.936 -5.928,2.936 -3.103,0 -5.43,-1.376 -6.981,-4.128 l 0,-14.322 c 1.532,-2.733 3.878,-4.1 7.036,-4.1 2.456,0 4.409,0.974 5.86,2.922 C -0.725,-6.737 0,-3.842 0,0 m 5.125,-0.582 c 0,-4.563 -1.043,-8.237 -3.13,-11.026 -2.088,-2.789 -4.913,-4.183 -8.478,-4.183 -3.638,0 -6.501,1.153 -8.587,3.463 l 0,-14.434 -5.126,0 0,41.5 4.682,0 0.25,-3.325 c 2.086,2.586 4.986,3.879 8.699,3.879 3.601,0 6.449,-1.357 8.546,-4.072 C 4.077,8.505 5.125,4.728 5.125,-0.111 l 0,-0.471 z"
             style="fill:#ffffff;fill-opacity:1;fill-rule:nonzero;stroke:none"
             id="path150" /></g><g
           style="fill:#ffffff;fill-opacity:1"
           id="g152"
           transform="translate(873.7505,530.4023)"><path
             d="m 0,0 c -2.069,0 -3.805,-0.753 -5.208,-2.258 -1.404,-1.505 -2.272,-3.615 -2.604,-6.33 l 15.015,0 0,0.388 C 7.055,-5.596 6.353,-3.578 5.097,-2.147 3.841,-0.716 2.143,0 0,0 m 0.637,-26.872 c -4.063,0 -7.369,1.334 -9.918,4.003 -2.548,2.669 -3.823,6.237 -3.823,10.707 l 0,0.942 c 0,2.974 0.568,5.628 1.704,7.965 1.136,2.336 2.724,4.164 4.765,5.485 2.04,1.32 4.253,1.981 6.635,1.981 3.897,0 6.925,-1.284 9.087,-3.851 2.161,-2.567 3.241,-6.243 3.241,-11.026 l 0,-2.133 -20.307,0 c 0.074,-2.955 0.937,-5.343 2.591,-7.161 1.652,-1.819 3.754,-2.729 6.302,-2.729 1.81,0 3.342,0.37 4.599,1.108 1.256,0.738 2.355,1.718 3.297,2.936 l 3.13,-2.437 c -2.512,-3.86 -6.279,-5.79 -11.303,-5.79"
             style="fill:#ffffff;fill-opacity:1;fill-rule:nonzero;stroke:none"
             id="path154" /></g><g
           style="fill:#ffffff;fill-opacity:1"
           id="g156"
           transform="translate(911.3721,529.8203)"><path
             d="m 0,0 -13.824,0 0,-25.736 -5.153,0 0,29.975 L 0,4.239 0,0 Z"
             style="fill:#ffffff;fill-opacity:1;fill-rule:nonzero;stroke:none"
             id="path158" /></g><g
           style="fill:#ffffff;fill-opacity:1"
           id="g160"
           transform="translate(925.8052,507.9902)"><path
             d="m 0,0 c 1.607,0 3.13,0.416 4.571,1.246 1.44,0.832 2.483,1.912 3.13,3.242 l 0,6.151 -4.016,0 c -6.281,0 -9.42,-1.838 -9.42,-5.514 0,-1.606 0.536,-2.863 1.607,-3.768 C -3.057,0.452 -1.681,0 0,0 M 8.505,-3.906 C 8.209,-3.315 7.969,-2.263 7.784,-0.747 5.402,-3.223 2.558,-4.46 -0.748,-4.46 c -2.955,0 -5.379,0.836 -7.273,2.507 -1.893,1.671 -2.839,3.791 -2.839,6.358 0,3.12 1.187,5.545 3.56,7.272 2.373,1.726 5.711,2.591 10.014,2.591 l 4.987,0 0,2.354 c 0,1.791 -0.536,3.218 -1.607,4.28 -1.071,1.062 -2.65,1.593 -4.737,1.593 -1.829,0 -3.362,-0.462 -4.599,-1.385 -1.237,-0.923 -1.856,-2.041 -1.856,-3.352 l -5.152,0 c 0,1.496 0.53,2.941 1.592,4.336 1.062,1.394 2.503,2.498 4.322,3.31 1.819,0.813 3.818,1.219 5.998,1.219 3.453,0 6.159,-0.863 8.117,-2.59 1.957,-1.727 2.973,-4.105 3.047,-7.134 l 0,-13.796 c 0,-2.752 0.351,-4.941 1.053,-6.566 l 0,-0.443 -5.374,0 z"
             style="fill:#ffffff;fill-opacity:1;fill-rule:nonzero;stroke:none"
             id="path162" /></g><g
           style="fill:#ffffff;fill-opacity:1"
           id="g164"
           transform="translate(968.4961,529.9033)"><path
             d="m 0,0 -10.057,0 0,-25.819 -5.125,0 0,25.819 -9.861,0 0,4.156 L 0,4.156 0,0 Z"
             style="fill:#ffffff;fill-opacity:1;fill-rule:nonzero;stroke:none"
             id="path166" /></g><g
           style="fill:#ffffff;fill-opacity:1"
           id="g168"
           transform="translate(976.1143,518.7393)"><path
             d="m 0,0 c 0,-3.324 0.771,-5.993 2.313,-8.007 1.541,-2.013 3.606,-3.019 6.192,-3.019 2.603,0 4.673,1.02 6.206,3.061 1.532,2.041 2.299,4.899 2.299,8.574 0,3.287 -0.781,5.952 -2.341,7.993 -1.562,2.041 -3.634,3.061 -6.22,3.061 -2.53,0 -4.57,-1.007 -6.122,-3.019 C 0.775,6.63 0,3.749 0,0 m -5.153,0.609 c 0,2.937 0.578,5.578 1.731,7.924 1.155,2.345 2.761,4.155 4.821,5.43 2.059,1.274 4.409,1.911 7.05,1.911 4.082,0 7.383,-1.413 9.905,-4.238 2.52,-2.826 3.781,-6.585 3.781,-11.276 l 0,-0.36 c 0,-2.918 -0.559,-5.536 -1.676,-7.854 -1.118,-2.318 -2.715,-4.124 -4.793,-5.416 -2.078,-1.293 -4.465,-1.939 -7.161,-1.939 -4.063,0 -7.355,1.413 -9.876,4.238 -2.522,2.826 -3.782,6.567 -3.782,11.22 l 0,0.36 z"
             style="fill:#ffffff;fill-opacity:1;fill-rule:nonzero;stroke:none"
             id="path170" /></g><g
           style="fill:#ffffff;fill-opacity:1"
           id="g172"
           transform="translate(1024.8721,519.3213)"><path
             d="m 0,0 c 0,3.38 -0.721,6.048 -2.161,8.006 -1.441,1.958 -3.417,2.936 -5.928,2.936 -3.103,0 -5.431,-1.376 -6.982,-4.128 l 0,-14.322 c 1.533,-2.733 3.879,-4.1 7.037,-4.1 2.456,0 4.409,0.974 5.859,2.922 C -0.725,-6.737 0,-3.842 0,0 m 5.125,-0.582 c 0,-4.563 -1.044,-8.237 -3.131,-11.026 -2.087,-2.789 -4.913,-4.183 -8.477,-4.183 -3.638,0 -6.501,1.153 -8.588,3.463 l 0,-14.434 -5.125,0 0,41.5 4.682,0 0.249,-3.325 c 2.087,2.586 4.987,3.879 8.699,3.879 3.602,0 6.45,-1.357 8.546,-4.072 C 4.076,8.505 5.125,4.728 5.125,-0.111 l 0,-0.471 z"
             style="fill:#ffffff;fill-opacity:1;fill-rule:nonzero;stroke:none"
             id="path174" /></g><g
           style="fill:#ffffff;fill-opacity:1"
           id="g176"
           transform="translate(1062.5762,507.7129)"><path
             d="m 0,0 c 1.829,0 3.426,0.555 4.793,1.663 1.366,1.108 2.123,2.492 2.271,4.155 l 4.849,0 C 11.82,4.101 11.229,2.466 10.14,0.915 9.05,-0.637 7.596,-1.874 5.776,-2.798 3.957,-3.721 2.032,-4.183 0,-4.183 c -4.081,0 -7.327,1.362 -9.737,4.086 -2.41,2.724 -3.616,6.451 -3.616,11.179 l 0,0.858 c 0,2.918 0.536,5.513 1.607,7.786 1.07,2.271 2.608,4.035 4.613,5.291 2.003,1.255 4.372,1.883 7.106,1.883 3.36,0 6.154,-1.006 8.38,-3.019 2.225,-2.014 3.412,-4.627 3.56,-7.84 l -4.849,0 c -0.148,1.938 -0.882,3.532 -2.202,4.778 -1.321,1.247 -2.95,1.87 -4.889,1.87 -2.605,0 -4.622,-0.937 -6.053,-2.811 -1.433,-1.875 -2.148,-4.585 -2.148,-8.131 l 0,-0.97 c 0,-3.454 0.711,-6.114 2.133,-7.978 C -4.673,0.934 -2.641,0 0,0"
             style="fill:#ffffff;fill-opacity:1;fill-rule:nonzero;stroke:none"
             id="path178" /></g><g
           style="fill:#ffffff;fill-opacity:1"
           id="g180"
           transform="translate(1102.5244,529.9033)"><path
             d="m 0,0 -10.057,0 0,-25.819 -5.125,0 0,25.819 -9.862,0 0,4.156 L 0,4.156 0,0 Z"
             style="fill:#ffffff;fill-opacity:1;fill-rule:nonzero;stroke:none"
             id="path182" /></g><g
           style="fill:#ffffff;fill-opacity:1"
           id="g184"
           transform="translate(1127.707,519.3213)"><path
             d="m 0,0 c 0,3.38 -0.721,6.048 -2.161,8.006 -1.441,1.958 -3.417,2.936 -5.928,2.936 -3.103,0 -5.431,-1.376 -6.981,-4.128 l 0,-14.322 c 1.532,-2.733 3.878,-4.1 7.036,-4.1 2.456,0 4.409,0.974 5.859,2.922 C -0.725,-6.737 0,-3.842 0,0 m 5.125,-0.582 c 0,-4.563 -1.044,-8.237 -3.131,-11.026 -2.087,-2.789 -4.912,-4.183 -8.477,-4.183 -3.638,0 -6.501,1.153 -8.587,3.463 l 0,-14.434 -5.126,0 0,41.5 4.682,0 0.249,-3.325 c 2.087,2.586 4.988,3.879 8.7,3.879 3.601,0 6.449,-1.357 8.545,-4.072 C 4.076,8.505 5.125,4.728 5.125,-0.111 l 0,-0.471 z"
             style="fill:#ffffff;fill-opacity:1;fill-rule:nonzero;stroke:none"
             id="path186" /></g><g
           style="fill:#ffffff;fill-opacity:1"
           id="g188"
           transform="translate(1149.3428,507.9902)"><path
             d="m 0,0 c 1.607,0 3.131,0.416 4.571,1.246 1.441,0.832 2.484,1.912 3.131,3.242 l 0,6.151 -4.017,0 c -6.28,0 -9.419,-1.838 -9.419,-5.514 0,-1.606 0.536,-2.863 1.607,-3.768 C -3.057,0.452 -1.681,0 0,0 M 8.505,-3.906 C 8.21,-3.315 7.97,-2.263 7.785,-0.747 5.402,-3.223 2.559,-4.46 -0.748,-4.46 c -2.954,0 -5.379,0.836 -7.272,2.507 -1.893,1.671 -2.839,3.791 -2.839,6.358 0,3.12 1.186,5.545 3.56,7.272 2.372,1.726 5.711,2.591 10.014,2.591 l 4.987,0 0,2.354 c 0,1.791 -0.536,3.218 -1.607,4.28 -1.072,1.062 -2.651,1.593 -4.737,1.593 -1.829,0 -3.362,-0.462 -4.599,-1.385 -1.238,-0.923 -1.857,-2.041 -1.857,-3.352 l -5.152,0 c 0,1.496 0.531,2.941 1.593,4.336 1.062,1.394 2.503,2.498 4.322,3.31 1.818,0.813 3.817,1.219 5.998,1.219 3.453,0 6.159,-0.863 8.116,-2.59 1.958,-1.727 2.974,-4.105 3.048,-7.134 l 0,-13.796 c 0,-2.752 0.351,-4.941 1.053,-6.566 l 0,-0.443 -5.375,0 z"
             style="fill:#ffffff;fill-opacity:1;fill-rule:nonzero;stroke:none"
             id="path190" /></g><g
           style="fill:#ffffff;fill-opacity:1"
           id="g192"
           transform="translate(1180.2598,523.1162)"><path
             d="m 0,0 6.648,10.943 5.985,0 -9.808,-14.821 10.113,-15.154 -5.929,0 -6.926,11.22 -6.926,-11.22 -5.956,0 10.111,15.154 -9.806,14.821 5.929,0 L 0,0 Z"
             style="fill:#ffffff;fill-opacity:1;fill-rule:nonzero;stroke:none"
             id="path194" /></g><g
           style="fill:#ffffff;fill-opacity:1"
           id="g196"
           transform="translate(1201.5635,518.7393)"><path
             d="m 0,0 c 0,-3.324 0.771,-5.993 2.313,-8.007 1.541,-2.013 3.606,-3.019 6.192,-3.019 2.604,0 4.673,1.02 6.206,3.061 1.532,2.041 2.299,4.899 2.299,8.574 0,3.287 -0.781,5.952 -2.341,7.993 -1.562,2.041 -3.634,3.061 -6.219,3.061 -2.531,0 -4.571,-1.007 -6.123,-3.019 C 0.775,6.63 0,3.749 0,0 m -5.153,0.609 c 0,2.937 0.578,5.578 1.731,7.924 1.155,2.345 2.762,4.155 4.821,5.43 2.059,1.274 4.41,1.911 7.051,1.911 4.081,0 7.382,-1.413 9.904,-4.238 C 20.875,8.81 22.136,5.051 22.136,0.36 l 0,-0.36 c 0,-2.918 -0.56,-5.536 -1.677,-7.854 -1.117,-2.318 -2.715,-4.124 -4.792,-5.416 -2.079,-1.293 -4.465,-1.939 -7.162,-1.939 -4.063,0 -7.355,1.413 -9.876,4.238 -2.522,2.826 -3.782,6.567 -3.782,11.22 l 0,0.36 z"
             style="fill:#ffffff;fill-opacity:1;fill-rule:nonzero;stroke:none"
             id="path198" /></g><g
           style="fill:#ffffff;fill-opacity:1"
           id="g200"
           transform="translate(1235.7217,517.2432)"><path
             d="m 0,0 0,-9.031 8.477,0 c 2.142,0 3.745,0.396 4.806,1.191 1.063,0.794 1.593,1.912 1.593,3.353 C 14.876,-1.495 12.679,0 8.283,0 L 0,0 Z m 0,4.101 6.621,0 c 4.802,0 7.203,1.403 7.203,4.211 0,2.806 -2.272,4.256 -6.815,4.348 L 0,12.66 0,4.101 Z m -5.125,-17.26 0,29.975 11.69,0 c 3.99,0 7.051,-0.697 9.184,-2.091 2.134,-1.395 3.2,-3.441 3.2,-6.137 0,-1.385 -0.416,-2.636 -1.247,-3.754 -0.831,-1.117 -2.059,-1.972 -3.684,-2.563 1.809,-0.424 3.264,-1.255 4.363,-2.493 1.098,-1.237 1.648,-2.715 1.648,-4.432 0,-2.752 -1.01,-4.858 -3.033,-6.317 -2.022,-1.459 -4.881,-2.188 -8.574,-2.188 l -13.547,0 z"
             style="fill:#ffffff;fill-opacity:1;fill-rule:nonzero;stroke:none"
             id="path202" /></g><g
           style="fill:#ffffff;fill-opacity:1"
           id="g204"
           transform="translate(1266.334,518.7393)"><path
             d="m 0,0 c 0,-3.324 0.771,-5.993 2.313,-8.007 1.541,-2.013 3.606,-3.019 6.192,-3.019 2.604,0 4.673,1.02 6.206,3.061 1.532,2.041 2.299,4.899 2.299,8.574 0,3.287 -0.781,5.952 -2.341,7.993 -1.562,2.041 -3.634,3.061 -6.219,3.061 -2.531,0 -4.571,-1.007 -6.123,-3.019 C 0.775,6.63 0,3.749 0,0 m -5.153,0.609 c 0,2.937 0.578,5.578 1.731,7.924 1.155,2.345 2.762,4.155 4.821,5.43 2.059,1.274 4.41,1.911 7.051,1.911 4.081,0 7.382,-1.413 9.904,-4.238 C 20.875,8.81 22.136,5.051 22.136,0.36 l 0,-0.36 c 0,-2.918 -0.56,-5.536 -1.677,-7.854 -1.117,-2.318 -2.715,-4.124 -4.792,-5.416 -2.079,-1.293 -4.465,-1.939 -7.162,-1.939 -4.063,0 -7.355,1.413 -9.876,4.238 -2.522,2.826 -3.782,6.567 -3.782,11.22 l 0,0.36 z"
             style="fill:#ffffff;fill-opacity:1;fill-rule:nonzero;stroke:none"
             id="path206" /></g><g
           style="fill:#ffffff;fill-opacity:1"
           id="g208"
           transform="translate(1314.2607,529.8203)"><path
             d="m 0,0 -13.824,0 0,-25.736 -5.154,0 0,29.975 L 0,4.239 0,0 Z"
             style="fill:#ffffff;fill-opacity:1;fill-rule:nonzero;stroke:none"
             id="path210" /></g><g
           style="fill:#ffffff;fill-opacity:1"
           id="g212"
           transform="translate(1321.9346,518.7393)"><path
             d="m 0,0 c 0,-3.324 0.771,-5.993 2.313,-8.007 1.541,-2.013 3.606,-3.019 6.192,-3.019 2.603,0 4.673,1.02 6.206,3.061 1.532,2.041 2.299,4.899 2.299,8.574 0,3.287 -0.781,5.952 -2.341,7.993 -1.562,2.041 -3.634,3.061 -6.22,3.061 -2.53,0 -4.57,-1.007 -6.122,-3.019 C 0.775,6.63 0,3.749 0,0 m -5.153,0.609 c 0,2.937 0.578,5.578 1.731,7.924 1.155,2.345 2.761,4.155 4.821,5.43 2.059,1.274 4.41,1.911 7.05,1.911 4.082,0 7.383,-1.413 9.905,-4.238 2.52,-2.826 3.781,-6.585 3.781,-11.276 l 0,-0.36 c 0,-2.918 -0.559,-5.536 -1.676,-7.854 -1.118,-2.318 -2.715,-4.124 -4.793,-5.416 -2.078,-1.293 -4.465,-1.939 -7.161,-1.939 -4.063,0 -7.355,1.413 -9.876,4.238 -2.522,2.826 -3.782,6.567 -3.782,11.22 l 0,0.36 z"
             style="fill:#ffffff;fill-opacity:1;fill-rule:nonzero;stroke:none"
             id="path214" /></g><g
           style="fill:#ffffff;fill-opacity:1"
           id="g216"
           transform="translate(1389.0586,504.084)"><path
             d="m 0,0 -5.125,0 0,25.736 -13.796,0 0,-25.736 -5.153,0 0,29.976 L 0,29.976 0,0 Z"
             style="fill:#ffffff;fill-opacity:1;fill-rule:nonzero;stroke:none"
             id="path218" /></g><g
           style="fill:#ffffff;fill-opacity:1"
           id="g220"
           transform="translate(1417.4824,519.3213)"><path
             d="m 0,0 c 0,3.38 -0.72,6.048 -2.161,8.006 -1.441,1.958 -3.417,2.936 -5.928,2.936 -3.102,0 -5.43,-1.376 -6.981,-4.128 l 0,-14.322 c 1.533,-2.733 3.879,-4.1 7.036,-4.1 2.456,0 4.41,0.974 5.86,2.922 C -0.725,-6.737 0,-3.842 0,0 m 5.126,-0.582 c 0,-4.563 -1.044,-8.237 -3.131,-11.026 -2.087,-2.789 -4.913,-4.183 -8.477,-4.183 -3.638,0 -6.501,1.153 -8.588,3.463 l 0,-14.434 -5.125,0 0,41.5 4.681,0 0.25,-3.325 c 2.086,2.586 4.987,3.879 8.699,3.879 3.601,0 6.45,-1.357 8.546,-4.072 C 4.077,8.505 5.126,4.728 5.126,-0.111 l 0,-0.471 z"
             style="fill:#ffffff;fill-opacity:1;fill-rule:nonzero;stroke:none"
             id="path222" /></g><g
           style="fill:#ffffff;fill-opacity:1"
           id="g224"
           transform="translate(1432.9141,518.7393)"><path
             d="m 0,0 c 0,-3.324 0.771,-5.993 2.313,-8.007 1.541,-2.013 3.606,-3.019 6.192,-3.019 2.603,0 4.672,1.02 6.205,3.061 1.532,2.041 2.3,4.899 2.3,8.574 0,3.287 -0.781,5.952 -2.341,7.993 -1.562,2.041 -3.635,3.061 -6.22,3.061 -2.53,0 -4.571,-1.007 -6.122,-3.019 C 0.775,6.63 0,3.749 0,0 m -5.153,0.609 c 0,2.937 0.577,5.578 1.731,7.924 1.154,2.345 2.761,4.155 4.82,5.43 2.059,1.274 4.41,1.911 7.051,1.911 4.081,0 7.383,-1.413 9.905,-4.238 2.52,-2.826 3.781,-6.585 3.781,-11.276 l 0,-0.36 c 0,-2.918 -0.56,-5.536 -1.677,-7.854 -1.117,-2.318 -2.715,-4.124 -4.792,-5.416 -2.078,-1.293 -4.465,-1.939 -7.161,-1.939 -4.064,0 -7.356,1.413 -9.877,4.238 -2.521,2.826 -3.781,6.567 -3.781,11.22 l 0,0.36 z"
             style="fill:#ffffff;fill-opacity:1;fill-rule:nonzero;stroke:none"
             id="path226" /></g><g
           style="fill:#ffffff;fill-opacity:1"
           id="g228"
           transform="translate(1465.2988,508.2676)"><path
             d="m 0,0 13.769,0 0,21.055 -9.225,0 -0.305,-7.148 C 3.925,7.941 2.512,3.306 0,0 m -6.066,0 1.772,2.188 c 1.995,2.585 3.13,6.464 3.408,11.636 l 0.47,11.968 19.31,0 0,-25.792 3.851,0 0,-12.993 -5.125,0 0,8.809 -20.917,0 0,-8.809 -5.125,0 L -8.394,0 -6.066,0 Z"
             style="fill:#ffffff;fill-opacity:1;fill-rule:nonzero;stroke:none"
             id="path230" /></g><g
           style="fill:#ffffff;fill-opacity:1"
           id="g232"
           transform="translate(1503.5293,511.5918)"><path
             d="m 0,0 6.98,22.468 5.487,0 -12.052,-34.602 c -1.865,-4.987 -4.829,-7.48 -8.893,-7.48 l -0.968,0.084 -1.912,0.36 0,4.155 1.384,-0.111 c 1.737,0 3.089,0.351 4.06,1.053 0.969,0.702 1.768,1.985 2.396,3.85 l 1.135,3.047 -10.693,29.644 5.596,0 L 0,0 Z"
             style="fill:#ffffff;fill-opacity:1;fill-rule:nonzero;stroke:none"
             id="path234" /></g><g
           style="fill:#ffffff;fill-opacity:1"
           id="g236"
           transform="translate(1529.9023,516.8555)"><path
             d="m 0,0 -3.739,0 0,-12.771 -5.154,0 0,29.975 5.154,0 0,-12.688 3.351,0 10.084,12.688 6.206,0 -11.857,-14.406 12.854,-15.569 -6.51,0 L 0,0 Z"
             style="fill:#ffffff;fill-opacity:1;fill-rule:nonzero;stroke:none"
             id="path238" /></g><g
           style="fill:#ffffff;fill-opacity:1"
           id="g240"
           transform="translate(1573.4795,529.9033)"><path
             d="m 0,0 -10.056,0 0,-25.819 -5.126,0 0,25.819 -9.861,0 0,4.156 L 0,4.156 0,0 Z"
             style="fill:#ffffff;fill-opacity:1;fill-rule:nonzero;stroke:none"
             id="path242" /></g><g
           style="fill:#ffffff;fill-opacity:1"
           id="g244"
           transform="translate(1588.0244,507.9902)"><path
             d="m 0,0 c 1.607,0 3.13,0.416 4.571,1.246 1.441,0.832 2.484,1.912 3.13,3.242 l 0,6.151 -4.016,0 c -6.281,0 -9.419,-1.838 -9.419,-5.514 0,-1.606 0.535,-2.863 1.606,-3.768 C -3.057,0.452 -1.681,0 0,0 M 8.505,-3.906 C 8.209,-3.315 7.969,-2.263 7.784,-0.747 5.401,-3.223 2.558,-4.46 -0.748,-4.46 c -2.955,0 -5.38,0.836 -7.273,2.507 -1.892,1.671 -2.839,3.791 -2.839,6.358 0,3.12 1.187,5.545 3.56,7.272 2.373,1.726 5.711,2.591 10.015,2.591 l 4.986,0 0,2.354 c 0,1.791 -0.536,3.218 -1.606,4.28 -1.072,1.062 -2.651,1.593 -4.738,1.593 -1.829,0 -3.362,-0.462 -4.598,-1.385 -1.238,-0.923 -1.857,-2.041 -1.857,-3.352 l -5.152,0 c 0,1.496 0.53,2.941 1.593,4.336 1.061,1.394 2.502,2.498 4.321,3.31 1.819,0.813 3.818,1.219 5.998,1.219 3.453,0 6.159,-0.863 8.117,-2.59 1.957,-1.727 2.974,-4.105 3.047,-7.134 l 0,-13.796 c 0,-2.752 0.351,-4.941 1.053,-6.566 l 0,-0.443 -5.374,0 z"
             style="fill:#ffffff;fill-opacity:1;fill-rule:nonzero;stroke:none"
             id="path246" /></g><g
           style="fill:#ffffff;fill-opacity:1"
           id="g248"
           transform="translate(1628.5264,517.2432)"><path
             d="m 0,0 0,-9.031 8.478,0 c 2.141,0 3.744,0.396 4.805,1.191 1.063,0.794 1.594,1.912 1.594,3.353 C 14.877,-1.495 12.679,0 8.283,0 L 0,0 Z m 0,4.101 6.621,0 c 4.802,0 7.203,1.403 7.203,4.211 0,2.806 -2.272,4.256 -6.814,4.348 L 0,12.66 0,4.101 Z m -5.125,-17.26 0,29.975 11.69,0 c 3.99,0 7.051,-0.697 9.185,-2.091 2.133,-1.395 3.199,-3.441 3.199,-6.137 0,-1.385 -0.415,-2.636 -1.246,-3.754 -0.832,-1.117 -2.06,-1.972 -3.684,-2.563 1.808,-0.424 3.263,-1.255 4.362,-2.493 1.098,-1.237 1.648,-2.715 1.648,-4.432 0,-2.752 -1.01,-4.858 -3.033,-6.317 -2.022,-1.459 -4.881,-2.188 -8.574,-2.188 l -13.547,0 z"
             style="fill:#ffffff;fill-opacity:1;fill-rule:nonzero;stroke:none"
             id="path250" /></g><g
           style="fill:#ffffff;fill-opacity:1"
           id="g252"
           transform="translate(1692.9922,522.7285)"><path
             d="m 0,0 -17.48,0 0,-14.295 20.306,0 0,-4.35 -25.626,0 0,40.337 25.349,0 0,-4.35 -20.029,0 0,-12.992 L 0,4.35 0,0 Z"
             style="fill:#ffffff;fill-opacity:1;fill-rule:nonzero;stroke:none"
             id="path254" /></g><g
           style="fill:#ffffff;fill-opacity:1"
           id="g256"
           transform="translate(1707.2324,517.2432)"><path
             d="m 0,0 0,-9.031 8.477,0 c 2.142,0 3.744,0.396 4.806,1.191 1.062,0.794 1.593,1.912 1.593,3.353 C 14.876,-1.495 12.678,0 8.283,0 L 0,0 Z m 0,4.101 6.62,0 c 4.802,0 7.203,1.403 7.203,4.211 0,2.806 -2.271,4.256 -6.814,4.348 L 0,12.66 0,4.101 Z m -5.125,-17.26 0,29.975 11.689,0 c 3.99,0 7.052,-0.697 9.185,-2.091 2.133,-1.395 3.2,-3.441 3.2,-6.137 0,-1.385 -0.416,-2.636 -1.247,-3.754 -0.832,-1.117 -2.059,-1.972 -3.684,-2.563 1.809,-0.424 3.263,-1.255 4.363,-2.493 1.098,-1.237 1.648,-2.715 1.648,-4.432 0,-2.752 -1.011,-4.858 -3.034,-6.317 -2.022,-1.459 -4.88,-2.188 -8.574,-2.188 l -13.546,0 z"
             style="fill:#ffffff;fill-opacity:1;fill-rule:nonzero;stroke:none"
             id="path258" /></g><g
           style="fill:#ffffff;fill-opacity:1"
           id="g260"
           transform="translate(1754.2441,519.3213)"><path
             d="m 0,0 c 0,3.38 -0.721,6.048 -2.161,8.006 -1.441,1.958 -3.417,2.936 -5.928,2.936 -3.103,0 -5.431,-1.376 -6.981,-4.128 l 0,-14.322 c 1.532,-2.733 3.878,-4.1 7.036,-4.1 2.456,0 4.409,0.974 5.859,2.922 C -0.725,-6.737 0,-3.842 0,0 m 5.125,-0.582 c 0,-4.563 -1.044,-8.237 -3.13,-11.026 -2.088,-2.789 -4.913,-4.183 -8.477,-4.183 -3.639,0 -6.501,1.153 -8.588,3.463 l 0,-14.434 -5.125,0 0,41.5 4.681,0 0.249,-3.325 c 2.087,2.586 4.988,3.879 8.7,3.879 3.601,0 6.449,-1.357 8.545,-4.072 C 4.076,8.505 5.125,4.728 5.125,-0.111 l 0,-0.471 z"
             style="fill:#ffffff;fill-opacity:1;fill-rule:nonzero;stroke:none"
             id="path262" /></g><g
           style="fill:#ffffff;fill-opacity:1"
           id="g264"
           transform="translate(1769.6748,518.7393)"><path
             d="m 0,0 c 0,-3.324 0.771,-5.993 2.313,-8.007 1.541,-2.013 3.606,-3.019 6.192,-3.019 2.603,0 4.673,1.02 6.206,3.061 1.532,2.041 2.299,4.899 2.299,8.574 0,3.287 -0.781,5.952 -2.341,7.993 -1.562,2.041 -3.634,3.061 -6.22,3.061 -2.53,0 -4.57,-1.007 -6.122,-3.019 C 0.775,6.63 0,3.749 0,0 m -5.153,0.609 c 0,2.937 0.578,5.578 1.731,7.924 1.155,2.345 2.761,4.155 4.821,5.43 2.059,1.274 4.41,1.911 7.05,1.911 4.082,0 7.383,-1.413 9.905,-4.238 2.52,-2.826 3.781,-6.585 3.781,-11.276 l 0,-0.36 c 0,-2.918 -0.559,-5.536 -1.676,-7.854 -1.118,-2.318 -2.715,-4.124 -4.793,-5.416 -2.078,-1.293 -4.465,-1.939 -7.161,-1.939 -4.063,0 -7.355,1.413 -9.876,4.238 -2.522,2.826 -3.782,6.567 -3.782,11.22 l 0,0.36 z"
             style="fill:#ffffff;fill-opacity:1;fill-rule:nonzero;stroke:none"
             id="path266" /></g><g
           style="fill:#ffffff;fill-opacity:1"
           id="g268"
           transform="translate(1822.7539,504.084)"><path
             d="m 0,0 -5.125,0 0,25.736 -13.796,0 0,-25.736 -5.153,0 0,29.976 L 0,29.976 0,0 Z"
             style="fill:#ffffff;fill-opacity:1;fill-rule:nonzero;stroke:none"
             id="path270" /></g><g
           style="fill:#ffffff;fill-opacity:1"
           id="g272"
           transform="translate(1842.7842,530.4023)"><path
             d="m 0,0 c -2.069,0 -3.806,-0.753 -5.209,-2.258 -1.403,-1.505 -2.271,-3.615 -2.603,-6.33 l 15.014,0 0,0.388 C 7.055,-5.596 6.353,-3.578 5.097,-2.147 3.841,-0.716 2.142,0 0,0 m 0.637,-26.872 c -4.063,0 -7.369,1.334 -9.918,4.003 -2.548,2.669 -3.823,6.237 -3.823,10.707 l 0,0.942 c 0,2.974 0.568,5.628 1.704,7.965 1.135,2.336 2.723,4.164 4.764,5.485 2.041,1.32 4.253,1.981 6.636,1.981 3.896,0 6.925,-1.284 9.086,-3.851 2.161,-2.567 3.242,-6.243 3.242,-11.026 l 0,-2.133 -20.307,0 c 0.074,-2.955 0.937,-5.343 2.59,-7.161 1.653,-1.819 3.754,-2.729 6.303,-2.729 1.81,0 3.342,0.37 4.599,1.108 1.256,0.738 2.355,1.718 3.297,2.936 l 3.13,-2.437 c -2.512,-3.86 -6.28,-5.79 -11.303,-5.79"
             style="fill:#ffffff;fill-opacity:1;fill-rule:nonzero;stroke:none"
             id="path274" /></g></g></g></g></svg>